<?xml version="1.0" encoding="iso-8859-1"?>
<!-- Generator: Adobe Illustrator 23.0.3, SVG Export Plug-In . SVG Version: 6.00 Build 0)  -->
<svg version="1.1" id="Capa_1" xmlns="http://www.w3.org/2000/svg" xmlns:xlink="http://www.w3.org/1999/xlink" x="0px" y="0px"
	 viewBox="-49 141 512 512" style="enable-background:new -49 141 512 512;" xml:space="preserve">
<g>
	<path d="M456.071,302.153c0-13.232-10.768-24-24-24c-2.752,0-5.36,0.56-7.824,1.416l-35.848-44.808
		c2.917-4.682,4.365-10.378,3.348-16.509c-1.751-10.554-10.436-18.829-21.075-19.961c-7.757-0.825-14.837,2.093-19.753,7.125
		l-63.064-29.104c0.064-0.72,0.216-1.416,0.216-2.16c0-13.232-10.768-24-24-24c-10.416,0-19.216,6.712-22.528,16h-90.944
		c-3.312-9.288-12.112-16-22.528-16c-13.232,0-24,10.768-24,24c0,0.992,0.176,1.944,0.296,2.912l-39.68,19.84
		c-5.108-4.919-12.342-7.646-20.206-6.487c-9.844,1.45-17.849,9.063-19.892,18.801c-1.368,6.523,0.073,12.598,3.154,17.542
		l-35.848,44.808c-2.464-0.856-5.072-1.416-7.824-1.416c-13.232,0-24,10.768-24,24c0,10.416,6.712,19.216,16,22.528v50.952
		c-9.64,3.429-16.505,12.779-15.971,23.712c0.577,11.804,9.927,21.602,21.694,22.702c9.842,0.92,18.494-4.198,22.997-11.997
		l43.672,7.936c1.848,11.408,11.688,20.168,23.608,20.168c0.32,0,0.624-0.08,0.944-0.096l15.264,38.168
		c-5.821,5.131-9.228,12.938-7.935,21.557c1.593,10.621,10.298,19.01,20.97,20.215c9.169,1.035,17.41-3.173,22.253-9.948
		l68.656,19.616c0.151,2.484,0.849,7.97,4.843,12.98c7.811,9.798,20.932,8.622,22.005,8.508c31.667,23,63.333,46,95,69
		c4.667-3.509,9.333-7.019,14-10.528c-31.691-21.523-62.19-44.238-93.881-65.761c1.192-1.193,5.89-6.137,5.881-15.711
		c-0.01-11.308-8.239-18-9.288-18.824l9.552-28.664l71.784,23.928c0.192,10.216,6.8,18.816,15.952,22.08v82.952
		c-4.667,3.509-9.333,7.019-14,10.528c-6,21.946,8.101,33.009,20.929,33.584c11.047,0.495,22.467-8.941,22.425-22.738
		c-0.029-9.583-3.698-17.407-13.354-21.375v-82.944c9.288-3.312,16-12.112,16-22.528c0-2.92-0.6-5.688-1.56-8.28l61.384-51.152
		c4.703,2.799,10.374,4.172,16.486,3.029c10.681-1.998,18.873-11.052,19.63-21.892c0.778-11.152-6.15-20.741-15.94-24.232v-66.952
		C449.359,321.369,456.071,312.569,456.071,302.153z M94.952,404.552c-0.016-0.96-0.16-1.888-0.288-2.816l65.624-34.024
		l20.288,65.384L94.952,404.552z M77.096,381.88l-11.088-85.024l54.816-2.744c3.48,8.432,11.64,14.4,21.224,14.784l13.432,43.28
		l-68.144,35.336C84.48,384.848,80.984,382.912,77.096,381.88z M5.176,283.88c-0.504-1.224-1.152-2.368-1.848-3.488l35.848-44.808
		c0.928,0.32,1.84,0.664,2.808,0.872l5.904,45.288L5.176,283.88z M57.848,234.288C65.616,230.312,71,222.312,71,213
		c0-0.992-0.176-1.944-0.296-2.904l39.68-19.84c4.32,4.152,10.16,6.744,16.616,6.744c4.912,0,9.48-1.496,13.288-4.04l49.672,37.256
		l-35.968,33.568C150.688,262.064,146.984,261,143,261c-10.832,0-19.904,7.256-22.88,17.128l-56.192,2.808L57.848,234.288z
		 M241.016,182.568l-39.176,36.56L151,181h89.472C240.664,181.52,240.8,182.064,241.016,182.568z M263.328,296.264l-64.376,33.376
		L164.6,295.28c1.496-3.128,2.4-6.584,2.4-10.28c0-3.408-0.736-6.64-2.016-9.576l37.984-35.456l61.232,45.92
		c-0.712,2.272-1.2,4.624-1.2,7.112C263,294.12,263.184,295.184,263.328,296.264z M151,285c0,4.416-3.592,8-8,8s-8-3.584-8-8
		s3.592-8,8-8S151,280.584,151,285z M184.056,337.368l-14.152,7.336l-9.672-31.152L184.056,337.368z M174.728,360.232l21.2-10.992
		l37.48,37.48C231.904,389.848,231,393.304,231,397c0,7.664,3.68,14.432,9.296,18.824l-11.152,33.456l-29.872-9.96L174.728,360.232z
		 M255,405c-4.408,0-8-3.584-8-8s3.592-8,8-8s8,3.584,8,8S259.408,405,255,405z M255,373c-3.696,0-7.152,0.904-10.28,2.408
		l-33.896-33.896l59.84-31.032C274.96,314.496,280.672,317,287,317c4.464,0,8.592-1.304,12.176-3.432L335.6,343.92l-64.664,35.272
		C266.688,375.384,261.144,373,255,373z M355.624,242c3.4,1.856,7.24,3,11.376,3c2.752,0,5.352-0.56,7.816-1.416l35.848,44.816
		c-2.28,3.672-3.664,7.96-3.664,12.6c0,1.288,0.184,2.528,0.384,3.768l-56.672,30.912l-41.272-34.392
		c0.96-2.6,1.56-5.368,1.56-8.288c0-3.248-0.664-6.352-1.84-9.176L355.624,242z M295,293c0,4.416-3.592,8-8,8s-8-3.584-8-8
		s3.592-8,8-8S295,288.584,295,293z M348.824,354.936l57.32,47.768l-124.2-11.288L348.824,354.936z M418.824,392.432l-54.888-45.744
		l51.128-27.888c2.296,2.064,4.976,3.664,7.944,4.72v66.952C421.536,391,420.144,391.648,418.824,392.432z M439,301
		c0,4.416-3.592,8-8,8s-8-3.584-8-8s3.592-8,8-8S439,296.584,439,301z M367,213c4.408,0,8,3.584,8,8s-3.592,8-8,8s-8-3.584-8-8
		S362.592,213,367,213z M343.216,218.832C343.152,219.56,343,220.256,343,221c0,3.256,0.664,6.352,1.84,9.184L298.376,272
		c-3.4-1.856-7.24-3-11.376-3c-4.912,0-9.48,1.496-13.288,4.04l-58.864-44.152l37.16-34.68c3.304,1.72,7.008,2.792,10.992,2.792
		c6.728,0,12.792-2.8,17.16-7.272L343.216,218.832z M263,165c4.408,0,8,3.584,8,8s-3.592,8-8,8s-8-3.584-8-8S258.592,165,263,165z
		 M127,165c4.408,0,8,3.584,8,8s-3.592,8-8,8s-8-3.584-8-8S122.592,165,127,165z M47,205c4.408,0,8,3.584,8,8s-3.592,8-8,8
		s-8-3.584-8-8S42.592,205,47,205z M-17,285c4.408,0,8,3.584,8,8s-3.592,8-8,8s-8-3.584-8-8S-21.408,285-17,285z M-17,397
		c-4.408,0-8-3.584-8-8s3.592-8,8-8s8,3.584,8,8S-12.592,397-17,397z M-9,366.472V315.52c7.144-2.552,12.68-8.352,14.88-15.656
		l44.096-2.208l11.152,85.52c-4.592,2.088-8.344,5.584-10.848,9.928l-43.664-7.936C5.2,376.456-0.88,369.368-9,366.472z M63,405
		c0-4.416,3.592-8,8-8s8,3.584,8,8s-3.592,8-8,8S63,409.416,63,405z M86.792,422.928c1.112-0.984,2.12-2.056,3.04-3.224l96.592,32.2
		l14.264,45.952c-1.976,1.488-3.736,3.24-5.176,5.248l-68.656-19.616C126.048,470.968,115.72,461,103,461
		c-0.32,0-0.624,0.08-0.944,0.096L86.792,422.928z M103,493c-4.408,0-8-3.584-8-8s3.592-8,8-8s8,3.584,8,8S107.408,493,103,493z
		 M215,525c-4.408,0-8-3.584-8-8s3.592-8,8-8s8,3.584,8,8S219.408,525,215,525z M215.272,490.888l-10.168-32.752l18.976,6.328
		L215.272,490.888z M255.448,420.952c9.456-0.176,17.544-5.84,21.288-13.944l131.088,11.912c0.208,0.8,0.448,1.584,0.736,2.352
		l-61.384,51.152C343.592,470.304,339.464,469,335,469c-7.664,0-14.432,3.68-18.824,9.296l-71.856-23.952L255.448,420.952z M335,629
		c-4.389,0-8-3.611-8-8c0-4.416,3.592-8,8-8c4.389,0,8,3.611,8,8S339.389,629,335,629z M335,501c-4.408,0-8-3.584-8-8s3.592-8,8-8
		s8,3.584,8,8S339.408,501,335,501z M431,421c-4.408,0-8-3.584-8-8s3.592-8,8-8s8,3.584,8,8S435.408,421,431,421z"/>
</g>
</svg>
