<?xml version="1.0" standalone="no"?>
<!DOCTYPE svg PUBLIC "-//W3C//DTD SVG 20010904//EN"
 "http://www.w3.org/TR/2001/REC-SVG-20010904/DTD/svg10.dtd">
<svg version="1.0" xmlns="http://www.w3.org/2000/svg"
 width="700.000000pt" height="700.000000pt" viewBox="0 0 700.000000 700.000000"
 preserveAspectRatio="xMidYMid meet">
<metadata>
Created by potrace 1.11, written by Peter Selinger 2001-2013
</metadata>
<g transform="translate(0.000000,700.000000) scale(0.100000,-0.100000)"
fill="#000000" stroke="none">
<path d="M2408 6875 c-2 -2 -22 -5 -44 -7 -137 -16 -260 -153 -268 -300 l-3
-61 -264 -133 c-145 -74 -267 -134 -272 -134 -4 0 -26 13 -48 30 -127 91 -311
71 -420 -47 -64 -69 -84 -123 -84 -223 0 -67 5 -94 22 -127 l21 -42 -37 -48
c-27 -36 -426 -537 -447 -562 -2 -2 -25 0 -51 5 -203 39 -398 -128 -387 -331
6 -123 88 -245 192 -286 16 -6 22 -17 23 -41 1 -37 1 -649 0 -660 -1 -4 -16
-14 -34 -23 -171 -81 -233 -304 -131 -467 31 -49 104 -108 162 -131 57 -23
158 -25 220 -3 41 15 132 73 132 85 0 3 12 18 25 34 l24 28 138 -26 c76 -13
154 -27 173 -31 19 -3 44 -8 55 -10 215 -36 235 -42 235 -70 0 -27 43 -106 79
-143 60 -63 155 -107 222 -102 26 1 30 -8 132 -261 l104 -263 -27 -28 c-15
-16 -37 -47 -49 -70 -140 -279 155 -575 435 -437 35 17 76 47 92 66 l30 36
198 -57 c198 -56 214 -61 310 -90 28 -9 59 -17 70 -20 10 -2 95 -26 189 -52
l170 -48 11 -50 c31 -141 138 -231 289 -242 l73 -6 647 -470 646 -469 -6 -37
c-17 -102 -10 -181 22 -248 28 -61 102 -127 169 -152 153 -58 305 2 377 148
29 59 32 73 30 148 -2 126 -50 214 -145 266 l-33 17 -1 560 c0 308 2 564 5
568 4 4 20 14 36 22 17 8 53 38 81 65 69 69 98 143 91 240 -3 39 -7 77 -9 86
-4 21 820 712 842 705 8 -3 33 -12 55 -20 92 -35 221 -12 304 53 180 143 160
424 -38 538 -25 15 -48 30 -51 34 -3 4 -5 209 -4 456 l1 448 56 32 c84 49 138
126 154 218 42 233 -155 425 -392 382 l-40 -7 -55 71 c-30 39 -60 77 -65 83
-6 6 -37 45 -70 86 -33 41 -64 80 -70 86 -5 7 -59 73 -118 148 -77 96 -106
140 -99 149 5 7 17 36 27 66 48 147 -26 314 -172 386 -49 25 -70 29 -138 29
-66 0 -90 -4 -135 -25 -30 -15 -65 -36 -78 -48 l-22 -22 -168 77 c-92 42 -214
99 -271 125 -57 27 -105 49 -106 49 -2 0 -52 23 -111 51 -60 28 -129 59 -155
70 l-46 20 -7 61 c-18 176 -153 299 -326 300 -123 0 -235 -68 -287 -174 -10
-21 -25 -38 -33 -39 -8 0 -287 -1 -620 -2 l-605 -2 -27 45 c-15 25 -33 52 -40
61 -28 34 -107 86 -149 97 -49 13 -106 22 -111 17z m50 -219 c51 -26 71 -96
42 -144 -61 -99 -201 -60 -200 56 1 79 85 126 158 88z m1861 0 c79 -41 69
-157 -16 -193 -31 -12 -41 -13 -71 -1 -114 43 -90 204 31 207 15 1 41 -6 56
-13z m-361 -216 c3 -7 -10 -26 -28 -41 -18 -16 -70 -64 -115 -106 -45 -43
-137 -130 -205 -193 -68 -63 -136 -127 -151 -142 l-28 -27 -328 246 c-180 134
-336 252 -345 261 -16 16 23 17 589 16 491 -1 608 -3 611 -14z m824 -236 c150
-69 311 -144 358 -166 47 -22 115 -53 153 -70 64 -30 67 -33 68 -67 0 -20 3
-47 6 -61 14 -61 12 -63 -157 -215 -91 -82 -205 -185 -254 -229 -49 -45 -94
-85 -100 -91 -6 -5 -32 -29 -58 -52 l-46 -42 -59 21 c-72 25 -167 20 -237 -12
l-46 -22 -63 46 c-52 40 -196 148 -287 216 -14 11 -119 89 -235 176 -115 86
-211 157 -213 159 -3 3 76 78 357 341 41 38 90 84 109 102 31 29 38 32 61 22
63 -26 135 -31 201 -14 54 13 121 46 139 68 8 9 17 16 22 16 4 0 131 -57 281
-126z m-2546 81 c92 -56 206 -64 300 -21 l53 24 73 -54 c40 -30 84 -64 98 -74
14 -10 129 -96 255 -191 127 -94 235 -175 240 -181 10 -9 5 -15 -246 -248 -68
-63 -148 -138 -178 -167 l-55 -51 -40 16 c-67 28 -179 23 -247 -11 -69 -33
-129 -93 -159 -157 -14 -30 -29 -48 -39 -48 -17 1 -294 -11 -396 -18 -33 -2
-126 -6 -206 -10 l-147 -6 -7 63 c-3 35 -8 75 -10 89 -6 39 -34 251 -40 294
-7 58 -15 117 -21 156 -4 30 -1 37 23 52 91 57 153 164 153 269 l0 46 263 131
c144 72 265 131 268 132 4 0 33 -16 65 -35z m-868 -176 c75 -41 65 -160 -17
-192 -90 -36 -173 50 -135 140 24 60 92 83 152 52z m4357 -103 c58 -25 84 -84
61 -140 -34 -81 -146 -90 -191 -14 -34 59 -3 138 61 158 16 4 30 9 32 9 1 1
18 -5 37 -13z m-4464 -442 c9 -71 19 -150 23 -176 3 -27 9 -69 12 -95 3 -27 9
-68 13 -93 4 -25 7 -63 7 -85 -1 -35 -4 -40 -26 -41 -28 -2 -212 -11 -421 -20
l-136 -6 -7 26 c-6 23 22 62 236 330 208 260 246 302 263 296 17 -6 22 -24 36
-136z m2255 30 c32 -25 217 -164 409 -309 301 -225 350 -266 348 -286 -1 -13
-3 -47 -4 -75 l-2 -50 -151 -77 c-148 -75 -358 -184 -603 -312 l-121 -64 -235
235 -236 235 15 41 c17 48 18 137 3 193 l-11 39 64 61 c35 33 113 106 173 162
61 56 146 136 190 177 44 42 85 76 91 76 6 0 38 -21 70 -46z m2154 -13 c25 -1
64 2 87 7 23 5 43 6 45 2 2 -5 17 -26 35 -47 17 -21 91 -112 163 -203 72 -91
139 -174 148 -185 9 -11 43 -53 76 -94 l58 -73 -15 -36 c-25 -58 -30 -83 -31
-141 l-1 -53 -55 -30 c-30 -16 -82 -44 -115 -62 -33 -19 -89 -49 -125 -68 -36
-20 -114 -62 -175 -95 -60 -33 -146 -79 -190 -103 -44 -24 -85 -47 -92 -52
-16 -13 -17 -12 -323 244 -195 163 -254 218 -252 233 12 71 13 141 3 180 -9
36 -9 48 1 58 7 7 74 66 148 131 74 66 140 124 145 130 6 6 53 49 105 96 52
47 111 99 130 117 96 87 87 82 138 63 26 -9 67 -18 92 -19z m-2990 -458 c14
-9 27 -18 28 -19 2 -1 10 -19 17 -40 24 -72 -23 -138 -100 -138 -49 0 -80 21
-100 68 -39 91 73 185 155 129z m-2183 -113 c34 -21 54 -69 46 -113 -8 -41
-56 -79 -101 -81 -102 -2 -150 108 -78 180 40 40 83 45 133 14z m4146 9 c52
-23 74 -110 41 -158 -21 -30 -73 -51 -110 -45 -71 12 -110 109 -68 168 29 42
88 57 137 35z m1999 -138 c91 -102 -59 -239 -155 -143 -48 48 -43 113 11 160
39 34 106 26 144 -17z m-4305 -6 c40 -78 166 -165 243 -167 30 -1 31 -3 71
-132 22 -72 44 -142 49 -156 20 -55 90 -288 90 -298 0 -6 -75 -50 -167 -98
-93 -48 -208 -108 -258 -134 -49 -26 -166 -87 -260 -135 -93 -49 -185 -96
-204 -106 -33 -18 -35 -18 -62 2 -16 11 -49 29 -74 40 -33 15 -45 26 -46 42 0
12 -2 31 -4 42 -2 11 -9 63 -15 115 -6 52 -13 106 -15 120 -3 14 -7 45 -10 70
-3 25 -7 59 -9 75 -3 17 -7 53 -11 80 -7 57 -22 169 -31 235 -9 66 -13 100
-19 150 -3 25 -12 90 -19 145 -7 55 -13 101 -12 102 1 1 53 4 116 7 63 4 153
9 200 11 47 3 144 7 215 11 72 3 131 7 132 8 1 1 21 1 43 1 36 0 44 -4 57 -30z
m-980 -29 c0 -24 15 -151 18 -156 2 -3 6 -34 9 -70 4 -36 9 -76 11 -90 2 -14
7 -43 10 -65 2 -22 14 -112 26 -200 11 -88 22 -173 24 -188 2 -15 6 -44 9 -65
3 -20 8 -61 11 -91 4 -30 8 -63 11 -74 2 -11 6 -53 10 -92 6 -67 5 -73 -14
-79 -23 -8 -122 -102 -122 -117 0 -6 -8 -8 -17 -5 -10 3 -31 8 -48 11 -449 81
-514 93 -526 94 -3 1 -11 20 -18 43 -25 81 -93 164 -163 196 -21 9 -38 22 -39
27 -1 12 -1 641 0 671 1 13 13 26 36 37 55 26 119 91 145 146 22 49 25 51 64
52 23 0 61 2 86 3 25 2 119 7 210 11 91 4 166 8 167 9 1 0 23 2 51 2 30 1 49
-3 49 -10z m3047 -189 c91 -67 213 -81 313 -37 l44 19 242 -200 c133 -111 243
-205 245 -209 3 -7 -35 -29 -218 -128 -36 -19 -85 -46 -110 -60 -25 -14 -74
-41 -110 -60 -36 -20 -146 -80 -244 -134 -99 -54 -184 -98 -189 -98 -5 0 -21
8 -35 19 -75 53 -185 71 -271 45 -25 -7 -49 -14 -53 -14 -8 0 -458 450 -458
459 0 3 73 43 163 89 175 89 501 259 582 303 63 34 62 34 99 6z m-1376 -183
c124 -123 153 -157 142 -165 -32 -21 -172 -90 -176 -86 -3 2 -27 78 -55 168
-28 90 -57 181 -65 202 -7 20 -11 37 -8 37 3 0 76 -70 162 -156z m3421 29 c3
-2 5 -837 2 -895 -1 -10 -13 -24 -28 -31 -28 -14 -30 -13 -395 292 -201 168
-369 309 -373 312 -6 7 90 64 270 159 55 29 105 56 110 60 6 4 53 30 105 58
52 28 119 64 149 80 l53 30 52 -31 c28 -17 53 -32 55 -34z m-2843 -607 l253
-253 -15 -48 c-32 -109 -8 -218 67 -308 l42 -50 -73 -221 c-40 -121 -74 -223
-76 -225 -2 -3 -96 26 -207 64 l-203 68 -64 206 c-58 190 -96 312 -170 546
-15 50 -38 124 -50 165 -13 41 -29 95 -37 119 -7 24 -12 45 -11 46 5 5 282
145 287 145 2 0 118 -114 257 -254z m2219 -142 c209 -174 382 -321 384 -326 2
-6 -5 -8 -15 -5 -11 3 -59 9 -107 12 -49 4 -98 8 -110 10 -12 2 -62 6 -111 10
-49 4 -98 8 -110 10 -11 2 -59 6 -106 10 -47 3 -103 8 -125 10 -199 20 -241
24 -320 30 -86 7 -167 14 -220 20 -22 2 -74 7 -115 10 -41 4 -91 8 -110 10
-83 9 -196 18 -212 17 -10 0 -18 1 -18 3 0 3 77 46 298 166 28 16 78 43 110
61 111 61 138 76 262 143 69 38 148 81 175 97 28 15 55 28 60 28 6 0 182 -142
390 -316z m-2931 41 c16 -49 76 -245 135 -435 60 -190 107 -346 106 -348 -2
-2 -1136 371 -1162 382 0 1 -3 10 -5 21 -2 15 9 26 52 48 30 16 111 58 180 94
69 36 216 112 327 170 111 57 230 119 265 138 35 18 66 30 69 27 3 -4 18 -47
33 -97z m-2393 -98 c24 -15 49 -67 44 -92 -2 -11 -4 -25 -4 -32 -1 -17 -46
-60 -72 -68 -63 -20 -139 35 -139 101 0 46 14 70 53 95 34 21 81 19 118 -4z
m3701 -98 c54 -25 77 -99 49 -153 -8 -14 -29 -32 -48 -41 -47 -23 -95 -13
-127 26 -74 87 23 216 126 168z m-2518 -109 c30 -11 66 -65 66 -98 0 -60 -63
-118 -119 -109 -44 7 -65 23 -86 60 -16 31 -17 40 -6 77 19 64 82 95 145 70z
m4960 -141 c24 -28 28 -38 23 -76 -6 -53 -28 -79 -77 -94 -30 -9 -44 -8 -73 6
-55 26 -72 76 -51 148 3 10 20 27 37 38 46 29 103 20 141 -22z m-1994 -4 c19
-2 69 -6 110 -10 41 -3 93 -8 115 -10 63 -5 176 -15 220 -20 22 -2 72 -7 110
-10 39 -3 88 -8 110 -10 22 -2 72 -7 110 -10 39 -3 88 -8 110 -10 22 -2 72 -7
110 -10 39 -3 88 -8 110 -10 22 -2 72 -7 110 -10 39 -4 84 -8 100 -10 17 -2
73 -7 125 -11 52 -3 102 -8 110 -10 8 -1 23 -3 33 -3 47 -2 9 -45 -180 -202
-109 -89 -200 -165 -203 -169 -9 -9 -414 -346 -426 -353 -6 -4 -25 0 -41 8
-119 59 -270 28 -376 -78 -10 -10 -24 -17 -30 -14 -7 2 -226 76 -487 163 -261
87 -476 159 -477 159 -2 1 31 103 73 227 l75 225 57 12 c92 21 182 84 219 154
l15 29 81 -7 c45 -4 98 -8 117 -10z m-2097 -374 c362 -120 660 -221 663 -224
4 -3 28 -77 54 -164 27 -87 70 -226 95 -309 l47 -151 -36 -36 -36 -37 -467
134 -467 133 -11 49 c-33 142 -151 247 -290 257 l-40 2 -103 258 c-102 255
-103 257 -85 282 10 13 18 25 18 25 0 0 296 -98 658 -219z m1054 -351 c64 -22
119 -42 121 -45 2 -2 -22 -81 -54 -175 -31 -94 -60 -167 -64 -163 -7 7 -130
403 -130 417 0 9 3 9 127 -34z m844 -292 l487 -162 5 -47 c11 -90 73 -179 161
-230 l51 -28 0 -564 0 -564 -37 24 c-21 13 -192 132 -381 265 -188 133 -371
262 -407 287 -36 25 -69 49 -75 54 -5 4 -91 64 -190 133 -99 69 -180 128 -180
132 0 4 14 34 30 67 26 53 30 71 30 145 0 72 -4 93 -27 140 -15 31 -42 70 -60
88 l-32 34 64 194 c36 107 67 194 70 194 2 0 224 -73 491 -162z m-2295 36 c19
-20 30 -43 29 -57 -1 -12 -3 -30 -4 -40 0 -10 -14 -32 -30 -48 -53 -52 -149
-31 -172 39 -21 64 6 120 71 145 30 12 76 -5 106 -39z m3155 -85 c57 -30 61
-129 6 -175 -26 -22 -38 -25 -76 -21 -80 9 -119 80 -84 154 26 56 95 74 154
42z m-1651 -324 c110 -57 48 -223 -75 -200 -93 17 -113 146 -31 196 38 23 67
24 106 4z m1640 -1423 c14 -5 34 -25 44 -44 56 -103 -73 -208 -163 -132 -50
42 -53 112 -8 155 40 38 70 43 127 21z"/>
</g>
</svg>
